<?xml version="1.0"?>
<svg version="1.1" xmlns="http://www.w3.org/2000/svg" width="51" height="51" style=""><path fill="#058532" d="M50.3125,23.68359375q0.0390625,0.0390625,0.0390625,0.1171875q0,0.05859375-0.048828125,0.107421875t-0.126953125,0.107421875t-0.09765625,0.078125q0.1953125,0,0.1953125,0.1171875q0,0.078125-0.107421875,0.21484375t-0.205078125,0.17578125q-0.15625,0.09765625-0.15625,0.1953125l0,0.17578125l0,0.1171875q-0.01953125,0.1953125-0.3125,0.3515625t-0.52734375,0.15625q-0.0390625,0-0.087890625-0.01953125t-0.068359375-0.01953125q-0.05859375,0-0.29296875,0.01953125t-0.3515625,0.01953125q-0.4296875,0-0.64453125-0.15625q-0.56640625,0.37109375-0.68359375,0.37109375q-0.15625,0-0.3515625-0.25390625q-0.05859375,0.078125-0.21484375,0.166015625t-0.1953125,0.126953125q-0.09765625,0.0390625-0.234375,0.46875q-0.33203125,0.6640625-0.390625,0.72265625l0,0.48828125q0.078125,0.3125,0.078125,0.72265625q0,0.3125-0.0390625,0.390625l0.0390625,0.15625q0,0.0390625,0.01953125,0.05859375q0.01953125,0,0.0390625,0.009765625l0.05859375,0.029296875t0.078125,0.05859375q0.1171875,0.05859375,0.1171875,0.29296875q0,0.15625-0.078125,0.3125q-0.01953125,0.01953125-0.1171875,0.185546875t-0.1171875,0.263671875l0,0.2734375l0,0.4296875q0.078125,0.46875,0.078125,0.9765625l0,0.3125q0.0390625,0.05859375,0.048828125,0.263671875t0.029296875,0.263671875q0.078125,0.078125,0.1171875,0.078125t0.09765625-0.01953125t0.09765625-0.01953125l0.078125,0q0.15625,0.05859375,0.15625,0.15625q0,0.17578125-0.1953125,0.2734375q-0.01953125,0.01953125-0.078125,0.05859375t-0.078125,0.048828125t-0.05859375,0.0390625t-0.048828125,0.048828125t-0.029296875,0.048828125t-0.029296875,0.048828125t-0.01953125,0.05859375t-0.009765625,0.078125l0,0.09765625q0.0390625,0.1171875,0.0390625,0.46875q0,0.25390625-0.0390625,0.33203125q0,0.0390625-0.01953125,0.107421875t-0.01953125,0.087890625q0,0.0390625,0.1953125,0.078125q0.2734375,0.05859375,0.2734375,0.2734375t-0.5078125,0.8984375q0,0.0390625,0.01953125,0.224609375t0.01953125,0.322265625q0,0.41015625-0.078125,0.80078125q0.078125,0.234375,0.078125,0.60546875q0,0.33203125-0.078125,0.64453125q0,0.0390625,0.01953125,0.1171875t0.01953125,0.1171875q0,0.1171875-0.0390625,0.380859375t-0.0390625,0.380859375l0,0.1171875l0,0.15625l0,0.37109375q0.15625,0.05859375,0.15625,0.1953125q0,0.17578125-0.1953125,0.46875l0,0.17578125q0,0.234375,0.05859375,0.68359375t0.05859375,0.6640625q0,0.17578125-0.078125,0.56640625q0.13671875-0.0390625,0.380859375,0.048828125t0.244140625,0.224609375q0,0.0390625-0.1171875,0.15625q-0.01953125,0.0390625-0.146484375,0.09765625t-0.166015625,0.1171875q-0.078125,0.15625-0.078125,0.234375l0,0.234375q0.1171875,0.234375,0.1171875,0.33203125q0.48828125-0.33203125,0.60546875-0.33203125q0.15625,0,0.15625,0.25390625q0,0.1171875-0.078125,0.244140625t-0.078125,0.146484375q0,0.078125,0.1953125,0.078125q0.3125,0,0.60546875,0.1171875l0.1171875,0q0.05859375,0,0.17578125-0.01953125t0.17578125-0.01953125q0.1171875,0,0.1953125,0.0390625q0.05859375-0.01953125,0.15625-0.048828125t0.166015625-0.048828125t0.126953125-0.01953125q0.078125,0,0.234375,0.078125q0.09765625,0,0.302734375-0.0390625t0.302734375-0.0390625q0.37109375,0,0.60546875,0.224609375t0.234375,0.615234375q0.0390625,0.15625,0.0390625,0.76171875q0,0.72265625-0.078125,0.91796875l0,0.1171875q0,0.60546875-0.15625,0.91796875q0.0390625,0.078125,0.0390625,0.21484375q0,0.3515625-0.458984375,0.52734375t-0.830078125,0.13671875q-0.09765625-0.01953125-0.37109375,0.0390625t-0.390625,0.05859375q-0.1953125,0-0.390625-0.13671875q-0.15625-0.0390625-0.48828125-0.0390625l-0.5078125,0q-0.01953125,0-0.068359375,0.01953125t-0.068359375,0.01953125q-0.05859375,0-0.1953125-0.0390625t-0.1953125-0.0390625l-0.078125,0q-0.17578125,0.1171875-0.52734375,0.1171875q-0.33203125,0-0.4296875-0.15625q-0.15625,0.15625-0.44921875,0.15625q-0.0390625,0-0.1171875-0.01953125t-0.1171875-0.01953125q-0.17578125,0.13671875-0.41015625,0.13671875l-0.234375,0q-0.68359375-0.09765625-0.95703125-0.09765625q-0.17578125,0-0.56640625,0.09765625l-0.3125,0l-0.60546875,0q-0.078125,0-0.46875-0.09765625q-0.33203125,0-0.44921875-0.078125q-0.44921875,0.25390625-1.15234375,0.25390625q-0.29296875,0-0.60546875-0.078125q-0.1953125-0.09765625-0.48828125-0.09765625l-0.3125,0q-0.09765625,0-0.283203125-0.0390625t-0.283203125-0.0390625q-0.1171875,0-0.1953125,0.0390625q-0.01953125,0-0.078125,0.01953125t-0.078125,0.01953125t-0.48828125-0.1171875q-0.13671875,0-0.400390625,0.087890625t-0.400390625,0.087890625q-0.17578125-0.01953125-0.4296875,0.029296875t-0.3125,0.048828125q-0.3125,0-0.56640625-0.41015625q-0.0390625-0.078125-0.0390625-0.3125q0-0.64453125,0.15625-1.03515625q-0.078125,0.0390625-0.234375,0.0390625q-0.21484375,0-0.21484375-0.21484375q0-0.1953125,0.13671875-0.46875q0.2734375-0.48828125,0.2734375-0.91796875q-0.078125-0.3125-0.078125-0.52734375q0-0.3125,0.15625-0.52734375q0.09765625-0.15625,0.3515625-0.15625q0.13671875,0,0.17578125,0.0390625q0.234375-0.078125,0.3125-0.078125l0.1171875,0q0.546875,0.15625,0.83984375,0.15625q0.37109375,0,0.76171875-0.1953125q0.0390625-0.01953125,0.234375-0.15625t0.33203125-0.1171875q0.01953125,0,0.068359375,0.01953125t0.087890625,0.01953125q0.1171875,0,0.1171875-0.078125q0-0.0390625-0.0390625-0.078125l0-0.0390625q0-0.09765625,0.1171875-0.322265625t0.1171875-0.244140625q0.13671875-0.60546875,0.13671875-1.03515625q0-0.1953125-0.029296875-0.576171875t-0.029296875-0.556640625q0-0.15625,0.09765625-0.83984375q0-1.11328125,0.078125-1.6015625q-0.0390625-0.1171875-0.0390625-0.4296875q0-0.48828125,0.078125-0.95703125q-0.46875,0.234375-0.48828125,0.234375q-0.078125,0-0.1171875-0.078125l-0.0390625-0.078125q0-0.09765625,0.234375-0.33203125q0.0390625,0,0.244140625-0.15625t0.205078125-0.234375t-0.1171875-0.078125q-0.09765625,0-0.283203125-0.01953125t-0.283203125-0.01953125l-0.0390625,0q-0.05859375,0-0.146484375,0.0390625t-0.126953125,0.0390625q-0.01953125,0-0.068359375-0.01953125t-0.068359375-0.01953125q-0.1171875-0.0390625-0.3125-0.0390625l-0.3515625,0l-0.21484375,0q-0.17578125-0.01953125-0.48828125,0.087890625t-0.5078125,0.107421875q-0.703125,0-1.15234375-0.1171875q-0.0390625,0-0.146484375-0.01953125t-0.146484375-0.01953125q-0.17578125,0-0.556640625,0.0390625t-0.556640625,0.0390625q-0.44921875,0-0.64453125-0.1171875q-0.44921875,0-0.72265625,0.078125q-0.46875,0.1171875-0.5859375,0.1171875q-0.13671875,0-0.29296875-0.078125q-0.01953125,0-0.078125,0.01953125t-0.078125,0.01953125q-0.09765625,0-0.2734375-0.05859375t-0.2734375-0.05859375q-0.17578125,0-0.29296875,0.078125q-0.3515625,0.234375-0.4296875,0.234375q-0.078125-0.01953125-0.146484375-0.126953125t-0.107421875-0.146484375q-0.25390625,0.0390625-0.4296875,0.15625q0,0.48828125-0.0390625,0.60546875l0,0.15625l0,0.390625q0,0.1953125,0.09765625,0.1953125q0.05859375,0.01953125,0.09765625,0.01953125q0.234375,0.05859375,0.234375,0.2734375q0,0.29296875-0.2734375,0.56640625q-0.1171875,0.13671875-0.1953125,0.68359375q0.3125-0.05859375,0.3125,0.15625q0,0.13671875-0.15625,0.458984375t-0.15625,0.341796875q0.0390625-0.01953125,0.126953125-0.09765625t0.166015625-0.126953125t0.13671875-0.068359375q0.0390625-0.0390625,0.1171875-0.0390625q0.13671875,0,0.13671875,0.15625t-0.17578125,0.33203125q-0.0390625,0.01953125-0.4296875,0.3125l0-0.0390625l0,0.0390625l0.0390625,0.37109375l0-0.0390625q0.0390625,0.1171875,0.0390625,0.4296875q0.078125,0.3515625,0.078125,1.25q0,0.01953125,0.078125,0.41015625t0.078125,0.5859375l0,0.1171875q0.078125-0.078125,0.56640625-0.078125q0.3125,0,0.3125,0.1171875q0,0.0390625-0.078125,0.1953125l0.078125,0q0.21484375,0,0.44921875,0.1171875q0.0390625,0,0.185546875-0.01953125t0.166015625-0.01953125q0.13671875,0,0.419921875-0.01953125t0.419921875-0.01953125q0.29296875,0,0.41015625,0.0390625q0.3515625-0.09765625,0.48828125,0.146484375t0.13671875,0.693359375q0,0.37109375-0.0390625,0.48828125q-0.0390625,0.15625-0.0390625,0.56640625q0,0.52734375,0.078125,1.15234375l0,0.2734375q0,0.44921875-0.1953125,0.673828125t-0.68359375,0.341796875q-0.01953125,0-0.05859375,0.01953125t-0.05859375,0.01953125q-0.05859375,0-0.15625-0.0390625t-0.15625-0.0390625q-0.078125,0-0.1171875,0.0390625q-0.2734375,0-0.37109375-0.09765625q-0.078125,0.01953125-0.2734375,0.09765625t-0.3125,0.078125l-0.13671875,0q-0.52734375-0.1171875-1.11328125-0.1171875q-0.1171875-0.01953125-0.4296875-0.09765625t-0.48828125-0.078125q-0.1953125,0-0.2734375,0.0390625t-0.29296875,0.0390625q-0.1171875,0-0.1953125-0.0390625l-0.078125,0q-0.05859375,0-0.166015625,0.0390625t-0.185546875,0.0390625q-0.234375-0.078125-0.33203125-0.078125q-0.15625,0.078125-0.2734375,0.078125l-0.078125,0q-0.0390625,0-0.126953125-0.0390625t-0.126953125-0.0390625q-0.3125,0.21484375-0.46875,0.21484375q-0.44921875,0-0.64453125-0.13671875q-0.01953125,0-0.05859375,0.029296875t-0.05859375,0.029296875q-0.05859375,0-0.17578125-0.048828125t-0.17578125-0.048828125q-0.13671875,0-0.17578125,0.0390625l-0.1171875,0q-0.15625,0-0.234375-0.078125q-0.15625,0.078125-0.41015625,0.078125q-0.13671875,0-0.546875,0.068359375t-0.60546875,0.068359375q-0.17578125,0-0.48828125-0.078125q-0.15625,0.078125-0.4296875,0.078125l-0.56640625,0l-0.234375,0q-0.1171875,0.078125-0.2734375,0.078125q-0.0390625,0-0.13671875-0.01953125t-0.1953125-0.01953125l-0.15625,0l-0.3515625,0q-0.05859375-0.01953125-0.44921875-0.13671875t-0.56640625-0.1171875l-0.1171875,0q-0.15625,0.078125-0.2734375,0.078125q-0.29296875,0-0.595703125-0.13671875t-0.361328125-0.33203125q-0.078125-0.15625-0.078125-0.64453125q0-0.64453125,0.0390625-0.83984375q-0.1171875-0.8203125-0.1171875-1.11328125t0.0390625-0.41015625l0-0.1171875q0-0.4296875,0.21484375-0.595703125t0.703125-0.166015625q0.3515625,0,0.46875,0.1171875l0.0390625,0q0.01953125,0,0.107421875-0.01953125t0.107421875-0.01953125q0.05859375,0,0.17578125-0.0390625t0.17578125-0.0390625q0.0390625,0,0.1953125,0.078125q0.15625-0.078125,0.25390625-0.078125q0.1171875,0,0.1953125,0.0390625q0.15625-0.15625,0.3515625-0.15625q0.37109375-0.2734375,0.56640625-0.2734375q0.13671875,0,0.3125,0.1171875q0-0.17578125,0.13671875-0.517578125t0.1171875-0.478515625q-0.13671875,0.01953125-0.234375-0.05859375t-0.09765625-0.1953125q0-0.15625,0.1171875-0.2734375q0.13671875-0.13671875,0.185546875-0.244140625t0.068359375-0.283203125t0.0390625-0.2734375l0-0.15625l0-0.37109375q-0.21484375,0-0.21484375-0.15625q0-0.09765625,0.13671875-0.234375q0.078125-0.0390625,0.078125-0.2734375q0-0.078125-0.01953125-0.25390625t-0.01953125-0.234375q0.01953125-0.1953125,0.078125-0.615234375t0.078125-0.615234375q-0.1171875-0.2734375-0.1171875-1.2109375l0-0.1171875q0-0.48828125-0.078125-0.52734375q-0.17578125-0.05859375-0.17578125-0.15625q0-0.05859375,0.09765625-0.205078125t0.1171875-0.185546875q-0.0390625-0.078125-0.0390625-0.29296875q0-0.625,0.1953125-0.87890625l0-0.1171875q0-0.1953125,0.078125-0.4296875q-0.01953125-0.078125-0.126953125-0.21484375t-0.107421875-0.1953125q0-0.078125,0.078125-0.15625q0-0.01953125,0.0390625-0.068359375t0.0390625-0.087890625q-0.0390625-0.078125-0.0390625-0.41015625q-0.0390625-0.078125-0.0390625-0.2734375q0-0.29296875,0.078125-0.44921875l0-0.1953125q0-0.3515625,0.078125-0.5859375q-0.1171875-0.5859375-0.1171875-0.60546875q-0.1953125-0.68359375-0.1953125-1.1328125q0-0.05859375,0.01953125-0.146484375t0.01953125-0.126953125q0-0.01953125-0.01953125-0.13671875t-0.01953125-0.21484375q0-0.41015625,0.078125-0.56640625l0-0.078125q0-0.09765625,0.01953125-0.3515625l0.01953125-0.25390625q0-0.078125,0.0390625-0.595703125t0.078125-0.751953125l0-0.13671875l0-0.2734375l0-0.15625q-0.15625-0.3125-0.15625-0.52734375q-0.17578125-0.2734375-0.17578125-0.46875q-0.0390625-0.078125-0.15625-0.078125l-0.15625,0l-0.1171875,0q-0.390625,0-0.48828125-0.09765625q-0.2734375,0.13671875-0.46875,0.13671875q-0.2734375,0-0.33203125-0.17578125q-0.0390625-0.0390625-0.1171875-0.0390625l-0.1171875,0q-0.0390625,0-0.126953125-0.01953125t-0.146484375-0.01953125q-0.09765625,0-0.3125,0.01953125t-0.33203125,0.01953125q-0.3515625,0-0.56640625-0.15625q-0.1953125,0.0390625-0.3125-0.068359375t-0.166015625-0.3515625t-0.05859375-0.458984375t-0.009765625-0.56640625q0-0.72265625-0.0390625-0.87890625q-0.01953125,0.01953125-0.09765625,0.078125t-0.15625,0.09765625t-0.15625,0.0390625q-0.0390625,0-0.1171875-0.078125q-0.0390625-0.0390625-0.0390625-0.13671875q0-0.17578125,0.48828125-0.6640625q0-0.078125,0.009765625-0.341796875t0.029296875-0.380859375t0.09765625-0.283203125t0.21484375-0.244140625q0.3515625-0.1171875,0.48828125-0.1171875q0.1171875,0,0.15625,0.0390625q0.234375-0.15625,0.72265625-0.15625q0.1171875,0,0.3125,0.05859375t0.3125,0.05859375q0.05859375,0,0.185546875,0.0390625t0.185546875,0.0390625q0.15625,0.0390625,0.4296875,0.0390625q0.17578125,0,0.72265625-0.078125l0.15625,0l0.33203125,0l0.1953125,0.0390625l-0.0390625,0q0-0.0390625,0.234375-0.0390625q0.0390625-0.0390625,0.1953125-0.0390625t0.33203125,0.1171875q0.078125-0.0390625,0.234375-0.0390625q0.078125,0,0.21484375,0.01953125t0.1953125,0.01953125q0.2734375,0,0.625-0.1171875q0.0390625-0.0390625,0.17578125-0.0390625l0.3515625,0l0.15625,0q0.0390625,0,0.1953125-0.01953125t0.25390625-0.01953125l0.078125,0q0.21484375-0.15625,0.46875-0.15625q0.2734375,0,0.830078125,0.17578125t0.810546875,0.17578125l0.17578125,0l0.1953125,0l0.078125,0l0.1171875,0q0.078125,0,0.13671875-0.01953125t0.17578125-0.01953125q0.01953125,0,0.068359375-0.01953125t0.068359375-0.01953125q0.05859375,0,0.17578125,0.078125t0.17578125,0.078125l0.0390625,0q0.078125,0,0.244140625-0.05859375t0.244140625-0.05859375l0.1171875,0q0.01953125,0,0.05859375-0.01953125t0.05859375-0.01953125q0.078125,0,0.17578125,0.05859375t0.13671875,0.05859375q0.15625-0.078125,0.37109375-0.078125q0.33203125,0,0.4296875,0.15625q0.0390625,0.0390625,0.1171875,0.0390625t0.126953125-0.048828125t0.1171875-0.13671875t0.126953125-0.126953125q0.078125-0.078125,0.4296875-0.078125q0.29296875,0,0.87890625,0.1171875q0.078125-0.0390625,0.21484375-0.0390625q0.2734375,0,0.5078125,0.185546875t0.21484375,0.419921875l0,0.15625q0,0.13671875-0.068359375,0.4296875t-0.068359375,0.44921875q0,0.01953125,0.01953125,0.087890625t0.01953125,0.107421875q0.234375-0.078125,0.29296875-0.078125q0.2734375,0,0.2734375,0.3125t-0.234375,0.60546875q0.15625,0.05859375,0.15625,0.1953125t-0.078125,0.17578125q0.15625,0.05859375,0.15625,0.1171875q0,0.1171875-0.234375,0.283203125t-0.234375,0.185546875l0,0.15625q0,0.3125-0.13671875,0.44921875q-0.48828125,0.48828125-1.6015625,0.48828125q-0.234375-0.01953125-0.48828125,0.068359375t-0.419921875,0.185546875t-0.458984375,0.283203125t-0.4296875,0.263671875q-0.46875,0.29296875-0.46875,0.5859375q0,0.17578125,0.0390625,0.29296875q0.078125-0.078125,0.234375-0.078125q0.1171875,0,0.1171875,0.1953125q0,0.15625-0.1171875,0.2734375q-0.15625,0.15625-0.15625,0.2734375q0,0.0390625,0.01953125,0.13671875t0.01953125,0.15625q0,0.078125-0.0390625,0.15625q0,0.05859375,0.078125,0.146484375t0.078125,0.126953125t-0.078125,0.1171875q0,0.01953125-0.078125,0.146484375t-0.078125,0.146484375q0,0.09765625-0.1171875,0.80078125q0.15625-0.078125,0.3515625-0.078125q0.2734375,0,0.2734375,0.1953125q0,0.21484375-0.2734375,0.4296875q-0.3125,0.2734375-0.3125,0.60546875l0,0.1953125l0.078125,0q0.1953125,0,0.1953125,0.21484375q0,0.078125-0.078125,0.1171875q-0.15625,0.1171875-0.15625,0.234375l0,0.1171875q0,0.1171875-0.0390625,0.1953125q0.0390625,0,0.1171875,0.01953125t0.1171875,0.01953125q0.234375,0,0.673828125-0.146484375t0.517578125-0.166015625q0.0390625,0,0.146484375-0.01953125t0.146484375-0.01953125q0.1171875,0,0.25390625,0.01953125t0.29296875,0.048828125t0.25390625,0.048828125q0.078125-0.078125,0.2734375-0.078125q0.17578125,0,0.52734375,0.1171875q0.078125,0.0390625,0.15625,0.0390625q0.05859375,0,0.15625-0.01953125t0.15625-0.01953125l0.078125,0q0.234375-0.078125,0.37109375-0.078125t0.458984375,0.05859375t0.458984375,0.05859375l0.078125,0q0.17578125-0.1171875,0.390625-0.1171875q0.17578125,0,0.25390625,0.078125q0.078125-0.0390625,0.234375-0.0390625l0.1171875,0l0.33203125,0q0.234375,0,0.3125,0.0390625l0.1171875,0q0.05859375,0,0.185546875,0.01953125t0.185546875,0.01953125q0.1171875,0,0.1953125-0.0390625q0.078125-0.078125,0.15625-0.078125q0.05859375,0,0.15625,0.0390625t0.15625,0.0390625l0.078125,0q0.1171875-0.078125,0.41015625-0.078125t0.60546875,0.078125q0.05859375,0,0.263671875-0.01953125t0.283203125-0.01953125q0.0390625,0,0.09765625,0.01953125t0.078125,0.01953125q0.078125,0,0.078125-0.078125q0-0.0390625-0.01953125-0.126953125t-0.01953125-0.146484375l0-0.1171875q-0.17578125-0.05859375-0.17578125-0.21484375q0-0.078125,0.087890625-0.25390625t0.087890625-0.25390625l0-0.56640625q-0.17578125-0.05859375-0.17578125-0.15625q0-0.0390625,0.068359375-0.13671875t0.068359375-0.13671875l0-1.328125q-0.29296875-0.09765625-0.29296875-0.1953125q0-0.078125,0.13671875-0.244140625t0.15625-0.244140625q0-0.0390625-0.029296875-0.15625t-0.029296875-0.1953125q0-0.05859375,0.029296875-0.17578125t0.029296875-0.15625q-0.25390625-1.015625-0.25390625-1.19140625q-0.09765625-0.21484375-0.166015625-0.283203125t-0.302734375-0.087890625q-0.13671875,0.01953125-0.33203125-0.029296875t-0.2734375-0.048828125l-0.1171875,0l-0.1171875,0q-0.0390625,0-0.1171875-0.0390625t-0.13671875-0.0390625q-0.078125,0-0.1171875,0.0390625q-0.01953125,0-0.078125,0.01953125t-0.078125,0.01953125q-0.05859375,0-0.185546875-0.0390625t-0.166015625-0.0390625q-0.09765625,0-0.13671875,0.0390625q-0.05859375,0.01953125-0.1953125,0.068359375t-0.263671875,0.078125t-0.205078125,0.029296875q-0.09765625,0-0.29296875-0.09765625q-0.390625-0.25390625-0.390625-0.5078125q0-0.078125,0.0390625-0.1171875l-0.0390625-0.17578125l-0.078125,0q-0.1171875,0-0.15625-0.1171875l-0.05859375-0.078125q0-0.1171875,0.17578125-0.25390625t0.1953125-0.17578125l0-0.1171875l0-0.33203125l0-0.15625q0-0.01953125-0.09765625-0.078125t-0.09765625-0.1171875l0-0.078125q0-0.15625,0.146484375-0.537109375t0.126953125-0.556640625q-0.0390625,0.0390625-0.1171875,0.0390625l-0.078125,0q0.0390625-0.0390625,0.0390625-0.1171875q0-0.0390625-0.0390625-0.09765625t-0.0390625-0.09765625l0-0.0390625q0.01953125-0.01953125,0.0390625-0.01953125q0.1171875-0.078125,0.13671875-0.17578125q0.01953125-0.0390625,0.01953125-0.078125q0-0.2734375,0.5078125-0.498046875t0.76171875-0.185546875q0.3125,0.078125,0.33203125,0.078125q0.078125,0,0.15625-0.0390625t0.15625-0.0390625q0.1171875,0,0.15625,0.0390625q0.3515625,0.1171875,0.56640625,0.1171875q0.078125,0,0.224609375,0.0390625t0.224609375,0.0390625l0.078125,0q0.0390625-0.0390625,0.15625-0.0390625q0.05859375,0,0.17578125,0.0390625t0.17578125,0.0390625q0.13671875,0.01953125,0.33203125-0.048828125t0.2734375-0.068359375l0.1171875,0q0.078125-0.0390625,0.25390625-0.0390625q0.15625,0,0.234375,0.078125q0.3125-0.078125,0.4296875-0.1953125q0.078125-0.0390625,0.33203125-0.0390625q0.625,0,0.91796875,0.234375l0.1171875,0q0.44921875,0,0.56640625,0.1171875q0.05859375-0.01953125,0.21484375-0.087890625t0.25390625-0.068359375q0.1171875,0,0.1953125,0.0390625q0.078125-0.0390625,0.25390625-0.0390625q0.1953125,0,0.3125,0.0390625q0.29296875-0.1171875,0.44921875-0.1171875l0.15625,0q0.13671875,0.01953125,0.361328125-0.048828125t0.322265625-0.068359375q0.1171875,0,0.15625,0.0390625q0.05859375,0.01953125,0.17578125,0.068359375t0.17578125,0.048828125q0.01953125,0,0.05859375-0.01953125t0.05859375-0.01953125q0.5859375-0.1171875,0.80078125-0.1171875q0.25390625,0,0.48828125,0.078125q0.078125,0.0390625,0.1953125,0.0390625l0.1953125,0l0.13671875,0q0.09765625,0.01953125,0.2734375,0.078125t0.2734375,0.078125l0.41015625,0q0.41015625,0,0.64453125,0.078125q0.15625-0.0390625,0.46875-0.0390625q0.52734375,0,0.76171875-0.0390625q0.2734375-0.05859375,0.458984375,0.146484375t0.185546875,0.498046875q0,0.1171875-0.0390625,0.1953125q0,0.05859375,0.01953125,0.21484375t0.01953125,0.234375q0,0.2734375-0.078125,0.6640625l0,0.17578125q0,0.234375,0.078125,0.3515625q0.0390625-0.01953125,0.166015625-0.087890625t0.185546875-0.068359375q0.09765625,0,0.15625,0.1171875z M46.2890625,22.12109375q-0.09765625,0-0.17578125,0.068359375t-0.166015625,0.21484375t-0.107421875,0.166015625q-0.3515625,0.48828125-0.83984375,0.83984375q-0.64453125,0.60546875-1.7578125,1.42578125q-1.7578125,1.2890625-2.63671875,1.89453125q-0.05859375,0.0390625-0.302734375,0.17578125t-0.46875,0.2734375t-0.46875,0.302734375t-0.390625,0.3125t-0.126953125,0.244140625q1.58203125-0.80078125,4.21875-2.900390625t4.00390625-2.861328125q-0.13671875-0.0390625-0.390625-0.078125t-0.390625-0.078125z M43.5546875,22.12109375l-0.0390625,0.0390625l0.0390625-0.0390625q-0.15625,0.13671875-0.478515625,0.166015625t-0.478515625,0.166015625q-0.15625,0.15625-0.478515625,0.458984375t-0.478515625,0.458984375q-1.328125,1.23046875-1.6015625,1.50390625q3.203125-1.8359375,4.8046875-2.79296875q-0.1171875-0.0390625-0.41015625-0.0390625q-0.33203125,0-0.87890625,0.078125z M38.5546875,25.71484375q0.390625-0.37109375,1.220703125-1.1328125t1.259765625-1.171875q-1.71875,1.1328125-2.83203125,1.6796875q0.078125,0.05859375,0.166015625,0.21484375t0.146484375,0.2734375z M38.4765625,22.27734375l-0.15625,0.13671875l0.15625-0.13671875q-0.41015625,0.3125-1.07421875,0.76171875q0.234375-0.1171875,0.64453125-0.361328125t0.625-0.361328125q-0.0390625,0-0.09765625-0.01953125t-0.09765625-0.01953125z M40.078125,22.04296875q-0.01953125,0-0.0390625,0.05859375t-0.078125,0.126953125t-0.1171875,0.087890625q-0.41015625,0.17578125-0.80078125,0.37109375q-0.15625,0.09765625-0.8203125,0.556640625t-1.015625,0.712890625q0.25390625-0.13671875,0.95703125-0.537109375t1.171875-0.68359375t0.8984375-0.615234375q-0.078125-0.078125-0.15625-0.078125z M39.23828125,23.99609375l-0.1171875,0.0390625l0.1171875-0.0390625q-0.4296875,0.29296875-0.68359375,0.48828125q0.33203125-0.17578125,0.927734375-0.556640625t0.830078125-0.517578125q-0.9375,0.46875-1.07421875,0.5859375z M37.24609375,22.31640625l-0.0390625,0l0.0390625,0q-0.05859375,0-0.15625-0.0390625t-0.13671875-0.0390625t-0.1171875,0.078125q-0.1171875,0.1171875-0.234375,0.29296875q-0.48828125,0.48828125-0.72265625,0.68359375q1.328125-0.859375,1.484375-0.9375q-0.0390625-0.0390625-0.1171875-0.0390625z M35.99609375,22.00390625l0,0.0390625q0.0390625,0,0.0390625-0.0390625l-0.0390625,0q-0.05859375,0.01953125-0.21484375,0.078125t-0.21484375,0.078125l-0.078125,0q-0.05859375,0-0.185546875-0.05859375t-0.185546875-0.05859375q-0.01953125,0-0.0390625,0.01953125t-0.0390625,0.01953125q0,0.09765625,0.01953125,0.283203125t0.01953125,0.283203125q0.15625-0.09765625,0.498046875-0.302734375t0.498046875-0.302734375q-0.0390625,0-0.078125-0.0390625z M35.0390625,23.48828125q0-0.0390625,0.146484375-0.146484375t0.322265625-0.244140625t0.21484375-0.17578125q0.2734375-0.2734375,0.56640625-0.5078125q-0.48828125,0.21484375-1.015625,0.546875q-0.1953125,0.09765625-0.1953125,0.1953125l0,0.13671875q0,0.1171875-0.0390625,0.1953125z M38.80859375,27.27734375l0,0.17578125q1.875-1.171875,4.0625-2.8125q0.13671875-0.1171875,0.576171875-0.4296875t0.673828125-0.498046875t0.576171875-0.478515625t0.595703125-0.576171875t0.4296875-0.576171875q-0.15625,0.01953125-0.341796875,0.1171875t-0.419921875,0.263671875t-0.3515625,0.224609375q-0.46875,0.2734375-1.337890625,0.771484375t-1.103515625,0.634765625q-0.80078125,0.48828125-2.40234375,1.38671875q-0.80078125,0.60546875-1.0546875,0.60546875q-0.01953125,0-0.05859375-0.01953125t-0.05859375-0.01953125q0.21484375,0.64453125,0.21484375,1.23046875z M38.84765625,29.171875l0,0.078125q2.01171875-1.50390625,9.0234375-6.8359375q-0.01953125,0-0.05859375-0.029296875t-0.05859375-0.029296875q-0.13671875,0-0.302734375,0.078125t-0.419921875,0.25390625l-0.234375,0.1953125q-0.234375,0.13671875-1.34765625,0.91796875q-2.24609375,1.69921875-2.8515625,2.12890625q-1.19140625,0.95703125-2.59765625,1.875q-0.703125,0.4296875-0.95703125,0.56640625q-0.1953125,0.09765625-0.1953125,0.3125l0,0.2734375l0,0.21484375z M44.51171875,26.96484375l0-0.1171875q-0.21484375,0.15625-3.06640625,2.1484375q-0.25390625,0.17578125-0.771484375,0.56640625t-0.791015625,0.56640625q-0.99609375,0.6640625-0.99609375,0.87890625q0.78125-0.46875,2.119140625-1.416015625t1.748046875-1.220703125q1.0546875-0.83984375,1.5234375-0.83984375q0.15625,0,0.2734375,0.1171875q0-0.09765625-0.01953125-0.29296875t-0.01953125-0.2734375l0-0.1171875z M38.88671875,32.4140625q0,0.01953125,0.05859375-0.029296875t0.1171875-0.087890625l0.05859375-0.05859375q-0.0390625,0.05859375-0.234375,0.17578125l0,0.1171875q3.75-2.32421875,5.46875-3.1640625l-0.15625,0q-0.41015625,0-1.15234375,0.390625q-1.171875,0.64453125-4.16015625,2.65625z M38.88671875,31.84765625l0.234375-0.15625l-0.234375,0.15625q0.21484375-0.15625,1.6015625-1.259765625t2.1484375-1.669921875q-1.89453125,1.2890625-2.59765625,1.7578125q-0.09765625,0.078125-0.439453125,0.2734375t-0.52734375,0.380859375t-0.185546875,0.439453125l0,0.078125z M42.0703125,28.1171875l0.25390625-0.15625l-0.56640625,0.41015625q0.078125-0.09765625,0.3125-0.25390625q1.81640625-1.2890625,2.36328125-1.71875q-0.7421875,0.4296875-3.515625,2.36328125q-0.234375,0.15625-0.703125,0.478515625t-0.703125,0.478515625q-0.05859375,0.0390625-0.224609375,0.126953125t-0.234375,0.13671875t-0.13671875,0.15625t-0.068359375,0.224609375l0,0.0390625q1.62109375-1.19140625,3.22265625-2.28515625z M36.953125,33.25390625l0.0390625,0l-0.0390625,0q-0.078125,0-0.224609375-0.029296875t-0.244140625-0.029296875q-0.3125,0.390625-0.48828125,0.56640625q-0.078125,0.09765625-1.11328125,1.25q0.5078125-0.33203125,1.494140625-0.927734375t1.337890625-0.830078125q-0.05859375,0-0.185546875-0.048828125t-0.166015625-0.048828125q-0.05859375,0-0.1953125,0.048828125t-0.21484375,0.048828125z M34.16015625,33.37109375l-0.0390625,0q0.0390625-0.0390625,0.078125-0.0390625l-0.0390625,0.0390625l-0.15625,0.078125q0.078125-0.0390625,0.166015625-0.087890625t0.1953125-0.126953125t0.185546875-0.1171875q-0.13671875,0-0.390625,0.25390625z M32.59765625,33.33203125q-0.13671875,0-0.263671875-0.01953125t-0.166015625-0.01953125q-0.17578125,0-0.33203125,0.1171875q-0.234375,0.15625-0.654296875,0.478515625t-0.654296875,0.478515625q-0.25390625,0.17578125-0.751953125,0.537109375t-0.771484375,0.537109375q-0.05859375,0.05859375-0.322265625,0.263671875t-0.283203125,0.185546875l0.1171875,0q0.05859375,0,0.146484375,0.0390625t0.146484375,0.0390625q0.078125,0,0.15625-0.0390625q0.234375-0.15625,0.390625-0.15625l0.078125,0q0.76171875-0.4296875,1.09375-0.64453125q0.6640625-0.390625,2.79296875-1.796875q-0.078125-0.0390625-0.234375-0.0390625q-0.078125,0-0.234375,0.01953125t-0.25390625,0.01953125z M27.0703125,39.328125l0.05859375,0l0-0.0390625q-0.01953125,0-0.05859375,0.0390625q0.0390625,0.1171875-0.048828125,0.25390625t-0.283203125,0.263671875t-0.361328125,0.234375t-0.361328125,0.205078125t-0.21484375,0.1171875q-2.109375,1.2109375-2.71484375,1.6015625q-0.1171875,0.078125-1.25,0.76171875q-0.2734375,0.13671875-0.3125,0.224609375t-0.0390625,0.419921875q0.83984375-0.625,3.4375-2.16796875q1.03515625-0.703125,1.6796875-1.11328125q0.09765625-0.05859375,0.3125-0.224609375t0.33203125-0.224609375l0-0.15625l0-0.2734375q-0.01953125,0-0.17578125,0.078125z M27.20703125,40.7734375l-0.17578125,0.078125q0.17578125,0,0.17578125-0.078125q-0.5859375,0.3515625-1.2109375,0.6640625q1.2109375-0.41015625,1.2109375-0.6640625z M21.5234375,41.84765625l0.234375-0.1953125l-0.234375,0.1953125q2.28515625-1.85546875,4.62890625-3.69140625q-1.38671875,0.78125-2.94921875,1.77734375q-0.2734375,0.17578125-0.859375,0.537109375t-0.859375,0.537109375q0.0390625,0.1171875,0.0390625,0.4296875l0,0.41015625z M24.9609375,38.41015625q0.21484375-0.1171875,0.595703125-0.3515625t0.693359375-0.41015625t0.625-0.29296875q0.0390625-0.01953125,0.107421875-0.048828125t0.087890625-0.048828125t0.05859375-0.0390625l0.05859375-0.029296875t0.0390625-0.0390625t0.029296875-0.05859375t0.029296875-0.05859375t0.01953125-0.087890625t0.009765625-0.1171875t0.009765625-0.13671875q-1.30859375,0.95703125-2.36328125,1.71875z M30.0390625,35.890625l0.0390625,0l-0.0390625,0q0.0390625,0,0.146484375-0.078125t0.126953125-0.09765625q-0.05859375,0.01953125-0.15625,0.087890625t-0.1171875,0.087890625z M30.3125,33.1953125l-0.0390625,0l0.0390625,0q-0.29296875,0.21484375-0.625,0.21484375q-0.2734375,0-0.44921875-0.1171875q-0.09765625,0.05859375-0.185546875,0.068359375t-0.205078125,0.087890625q-0.078125,0.05859375-0.263671875,0.17578125t-0.263671875,0.17578125q-0.4296875,0.3125-1.2890625,0.8984375t-1.30859375,0.8984375q-0.13671875,0.09765625-0.9765625,0.6640625t-1.162109375,0.80078125t-0.888671875,0.712890625t-0.9375,0.908203125q5.91796875-3.4375,9.5703125-5.52734375q-0.17578125,0-0.517578125,0.01953125t-0.498046875,0.01953125z M27.16796875,30.96875l-0.64453125,0.3515625q0.64453125-0.3125,0.64453125-0.3515625q-2.91015625,1.69921875-3.125,1.8359375q-0.29296875,0.17578125-0.83984375,0.537109375t-0.83984375,0.537109375q-0.078125,0.05859375-0.263671875,0.146484375t-0.25390625,0.13671875t-0.13671875,0.166015625t-0.068359375,0.2734375l0,0.078125q3.046875-1.93359375,3.2421875-2.0703125q0.25390625-0.15625,0.7421875-0.478515625t0.6640625-0.439453125q0.87890625-0.52734375,0.87890625-0.72265625z M21.6015625,35.8125l0,0.1171875q0.33203125-0.2734375,1.03515625-0.76171875t1.03515625-0.76171875q-0.1953125,0.1171875-0.576171875,0.361328125t-0.576171875,0.361328125q-0.0390625,0.01953125-0.185546875,0.087890625t-0.1953125,0.09765625t-0.15625,0.09765625t-0.166015625,0.1171875t-0.1171875,0.126953125t-0.09765625,0.15625z M25.0390625,34.7578125l-0.83984375,0.48828125q0,0.01953125,0.21484375-0.107421875l0.4296875-0.25390625t0.1953125-0.126953125q-2.2265625,1.34765625-2.91015625,1.97265625q0.37109375-0.17578125,0.80078125-0.44921875t0.72265625-0.48828125t0.791015625-0.5859375t0.712890625-0.52734375q-0.078125,0.078125-0.1171875,0.078125z M24.921875,34.40625q0.3515625-0.1953125,0.9375-0.546875t0.78125-0.44921875q-0.7421875,0.37109375-1.71875,0.99609375z M21.5234375,38.37109375l0.1171875-0.17578125q-0.078125,0.13671875-0.1171875,0.17578125q0.3125-0.33203125,0.732421875-0.703125t0.68359375-0.56640625t0.869140625-0.634765625t0.7421875-0.537109375q0.4296875-0.3125,1.708984375-1.171875t1.943359375-1.34765625q-0.29296875-0.0390625-0.673828125,0.1171875t-0.64453125,0.3515625t-0.68359375,0.52734375t-0.556640625,0.4296875q-2.109375,1.4453125-2.32421875,1.6015625q-0.87890625,0.625-1.328125,0.76171875q-0.0390625,0-0.087890625,0.01953125t-0.068359375,0.01953125q-0.234375,0-0.234375-0.2734375q0-0.3125,0.234375-0.48828125q-0.3515625,0.25390625-0.3515625,0.44921875l0,0.3125l0,0.21484375q0.0390625,0.15625,0.0390625,0.6640625l0,0.25390625z M27.24609375,32.53125q-0.01953125-0.05859375-0.576171875,0.3125t-0.673828125,0.48828125q0.46875-0.29296875,0.99609375-0.52734375q0.09765625-0.0390625,0.13671875-0.068359375t0.048828125-0.0390625t0.01953125-0.05859375t0.048828125-0.107421875z M25.60546875,32.8828125q0.078125-0.05859375,0.48828125-0.25390625t0.751953125-0.390625t0.361328125-0.2734375q-0.2734375,0.13671875-1.6015625,0.91796875z M27.16796875,30.05078125q0-0.01953125-0.01953125-0.05859375t-0.01953125-0.05859375q-1.30859375,1.07421875-3.28125,2.55859375q2.265625-1.38671875,2.3046875-1.40625q0.13671875-0.078125,0.439453125-0.244140625t0.439453125-0.244140625q0.13671875-0.09765625,0.13671875-0.234375l0-0.3125z M27.24609375,28.91796875l-0.078125,0.078125q0-0.0390625,0.078125-0.078125q0.0390625-0.0390625,0.0390625-0.1171875q-0.87890625,0.6640625-0.99609375,0.76171875q0.37109375-0.2734375,0.95703125-0.64453125z M27.28515625,27.453125q-0.01953125-0.0390625-0.56640625,0.5078125q-0.5859375,0.48828125-0.87890625,0.68359375q-0.46875,0.3515625-0.99609375,0.712890625t-1.23046875,0.8203125t-1.015625,0.673828125q1.875-1.07421875,2.96875-1.7578125q0.3125-0.17578125,0.87890625-0.546875t0.87890625-0.546875q-0.0390625-0.1171875-0.0390625-0.390625l0-0.15625z M17.24609375,22.12109375q0,0.078125,0.0390625,0.078125t0.15625-0.1171875q-0.0390625,0-0.087890625-0.01953125t-0.068359375-0.01953125q-0.0390625,0.0390625-0.0390625,0.078125z M17.32421875,24.03515625l0.0390625-0.0390625l-0.0390625,0.0390625q0,0.05859375,0.0390625,0.05859375q0.01953125,0,0.15625-0.25390625q0.234375-0.29296875,0.41015625-0.5859375q0.13671875-0.17578125,0.37109375-0.546875t0.29296875-0.46875q-0.95703125,0.6640625-1.34765625,0.76171875q0.1171875,0.46875,0.1171875,0.76171875q0,0.1953125-0.0390625,0.2734375z M25.87890625,22.23828125l-0.078125,0.0390625q0.0390625,0,0.078125-0.0390625q-0.05859375-0.01953125-0.15625,0.05859375t-0.21484375,0.185546875t-0.15625,0.126953125q0.078125-0.05859375,0.263671875-0.185546875t0.263671875-0.185546875z M31.23046875,23.72265625l-0.1953125,0.1171875q0.0390625,0,0.1171875-0.048828125t0.078125-0.068359375q-0.29296875,0.15625-0.849609375,0.478515625t-0.830078125,0.478515625q0.17578125-0.1171875,0.52734375-0.1171875l0.1171875,0q0.078125-0.0390625,0.15625-0.0390625q0.13671875,0,0.17578125,0.0390625q0.234375-0.15625,0.3515625-0.1953125q0.41015625-0.2734375,0.41015625-0.44921875q0-0.078125-0.05859375-0.1953125z M28.359375,26.28125q0.60546875-0.3515625,0.68359375-0.390625q-0.0390625,0-0.1171875-0.01953125t-0.1171875-0.01953125q-0.234375,0-0.44921875,0.4296875z M29.47265625,24.7578125l0.0390625-0.0390625z M22.32421875,28.0390625q1.81640625-0.52734375,6.875-4.23828125q-4.53125,2.44140625-6.875,4.23828125z M22.75390625,28.29296875q-0.3515625,0.1171875-0.3515625,0.1953125q0.1171875-0.0390625,0.3515625-0.1953125q-0.05859375,0.01953125-0.4296875,0.087890625t-0.625,0.1953125t-0.25390625,0.341796875q0,0.13671875,0.0390625,0.17578125q0.234375-0.13671875,0.634765625-0.400390625t0.634765625-0.400390625z M21.71875,27.5703125q0.41015625-0.41015625,0.83984375-0.78125t1.03515625-0.8203125t0.888671875-0.654296875t1.07421875-0.751953125t0.927734375-0.64453125q-0.5078125,0.29296875-1.513671875,0.869140625t-1.494140625,0.888671875q-0.2734375,0.15625-0.83984375,0.48828125t-0.83984375,0.48828125q-0.234375,0.13671875-0.234375,0.5078125q0,0.078125,0.01953125,0.244140625t0.01953125,0.244140625q0.01953125-0.01953125,0.05859375-0.0390625t0.05859375-0.0390625z M21.484375,26.203125l0.0390625-0.0390625q0,0.0390625-0.0390625,0.0390625q0.390625-0.41015625,0.87890625-0.83984375t1.103515625-0.9375t0.927734375-0.78125q-1.7578125,1.1328125-2.75390625,1.6015625q-0.0390625,0.01953125-0.15625,0.068359375t-0.205078125,0.09765625t-0.087890625,0.107421875q0.01953125,0.05859375,0.0390625,0.09765625t0.048828125,0.146484375t0.05859375,0.17578125t0.05859375,0.146484375t0.05859375,0.107421875t0.029296875,0.009765625z M27.44140625,25.9296875l-0.87890625,0.5078125q0,0.01953125,0.21484375-0.09765625t0.439453125-0.25390625t0.224609375-0.15625q-0.6640625,0.390625-1.982421875,1.19140625t-1.982421875,1.2109375q-0.72265625,0.390625-1.8359375,1.11328125q-0.234375,0.09765625-0.234375,0.3515625q0,0.05859375,0.01953125,0.1953125t0.01953125,0.21484375q0.99609375-0.8203125,1.50390625-1.2109375t1.416015625-0.986328125t1.708984375-0.927734375q0.3125-0.15625,0.60546875-0.15625l0.1171875,0q0.234375,0,0.33203125,0.15625q0.078125-0.0390625,0.078125-0.15625l0-0.15625l0-0.078125q0.1953125-0.44921875,0.234375-0.76171875z M21.484375,31.203125l0.0390625-0.0390625l-0.0390625,0.0390625q0.703125-0.546875,2.05078125-1.435546875t1.77734375-1.201171875q-0.52734375,0.2734375-1.5625,0.830078125t-1.54296875,0.849609375q-0.2734375,0.15625-0.64453125,0.3125q-0.15625,0.05859375-0.15625,0.29296875q0,0.1171875,0.078125,0.3515625z M23.4765625,29.1328125q0.83984375-0.4296875,0.83984375-0.56640625q-0.234375,0.1171875-0.83984375,0.56640625q2.4609375-1.38671875,3.2421875-1.85546875q-0.2734375,0-1.23046875,0.52734375q-0.5859375,0.33203125-2.01171875,1.328125z M21.6796875,32.35546875l0.60546875-0.4296875q-0.60546875,0.390625-0.60546875,0.4296875q0.703125-0.48828125,2.099609375-1.484375t2.099609375-1.50390625q-2.0703125,1.26953125-3.359375,1.9921875q-0.625,0.3125-0.76171875,0.37109375q-0.15625,0.09765625-0.15625,0.1953125q0,0.05859375,0.0390625,0.1953125t0.0390625,0.234375z M32.12890625,23.48828125q0.0390625-0.0390625,0.0390625-0.078125q-0.0390625,0.0390625-0.0390625,0.078125l0.1171875-0.234375q-0.17578125,0.05859375-0.17578125,0.078125t0.029296875,0.068359375t0.029296875,0.087890625z M28.96484375,24.6015625l0.4296875-0.2734375q-0.4296875,0.234375-0.4296875,0.2734375q1.38671875-0.80078125,1.7578125-0.99609375q0.0390625-0.01953125,0.166015625-0.078125t0.21484375-0.1171875t0.087890625-0.1171875q-0.0390625-0.078125-0.0390625-0.29296875l0-0.1171875q-1.38671875,1.015625-2.75390625,1.9921875q0.1171875,0,0.283203125-0.126953125t0.283203125-0.146484375z M31.07421875,22.16015625q-0.078125,0.0390625-0.1953125,0.0390625t-0.390625-0.05859375t-0.37109375-0.05859375q-0.078125,0.078125-0.1953125,0.078125l-0.078125,0q-0.05859375,0.0390625-0.166015625,0.126953125t-0.166015625,0.126953125q-0.1953125,0.05859375-0.703125,0.390625q-1.81640625,1.2109375-3.2421875,2.28515625q-0.09765625,0.078125-0.68359375,0.48828125t-0.791015625,0.556640625t-0.64453125,0.478515625t-0.76171875,0.595703125t-0.615234375,0.556640625q1.81640625-1.42578125,5-3.203125q0.64453125-0.37109375,2.8125-1.5234375q0.15625-0.078125,0.458984375-0.234375t0.458984375-0.234375q0.21484375-0.1171875,0.25390625-0.166015625t0.09765625-0.244140625l-0.078125,0z M27.55859375,22.23828125q-0.078125,0.0390625-0.15625,0.0390625q-0.05859375,0-0.166015625-0.01953125t-0.166015625-0.01953125q-0.078125,0-0.15625,0.0390625q-0.09765625,0.0390625-0.244140625,0.087890625t-0.263671875,0.126953125q-0.390625,0.3515625-1.40625,1.15234375q-0.2734375,0.234375-0.791015625,0.673828125t-0.9375,0.80078125t-0.791015625,0.693359375q1.640625-0.9375,6.19140625-3.61328125l-0.0390625,0q-0.05859375,0-0.17578125,0.01953125t-0.17578125,0.01953125q-0.1171875,0-0.15625-0.0390625q-0.1953125,0.0390625-0.56640625,0.0390625z M19.6875,22.35546875l0.078125,0l-0.078125,0q-0.46875-0.15625-0.48828125-0.15625q-0.0390625,0-0.1171875,0.078125q-0.078125,0.1171875-0.263671875,0.341796875t-0.263671875,0.341796875q-0.15625,0.234375-0.478515625,0.712890625t-0.478515625,0.732421875q1.50390625-1.09375,3.359375-2.24609375q-0.05859375-0.01953125-0.205078125,0.048828125t-0.224609375,0.068359375l-0.078125,0l-0.17578125,0q-0.09765625,0-0.234375,0.0390625t-0.234375,0.0390625l-0.1171875,0z M21.5625,33.72265625q0,0.01953125,0.185546875-0.1171875t0.380859375-0.29296875t0.234375-0.1953125q1.6796875-1.26953125,1.9140625-1.46484375q1.54296875-1.15234375,2.8515625-2.20703125q-0.7421875,0.46875-2.0703125,1.42578125t-1.97265625,1.3671875q-0.80078125,0.546875-1.2109375,0.72265625q-0.17578125,0.078125-0.21484375,0.185546875t-0.0390625,0.283203125t-0.05859375,0.29296875z M21.5234375,40.36328125l0,0.078125q1.2890625-0.9375,3.84765625-2.802734375t3.828125-2.802734375q-0.7421875,0.44921875-2.236328125,1.30859375t-2.236328125,1.30859375q-0.21484375,0.13671875-1.142578125,0.64453125t-1.416015625,0.8203125q-0.078125,0.0390625-0.263671875,0.146484375t-0.263671875,0.146484375t-0.078125,0.5078125q0,0.52734375-0.0390625,0.64453125z M20.1171875,45.40234375l-0.0390625,0.0390625q0.0390625,0,0.0390625,0.0390625q0.0390625,0,0.078125-0.0390625q-0.0390625,0-0.078125-0.0390625z M18.76953125,45.890625q-0.0390625,0-0.09765625,0.01953125t-0.078125,0.01953125l-0.078125,0q-0.078125,0-0.1953125,0.1171875q-0.05859375,0.05859375-0.15625,0.17578125t-0.15625,0.17578125q-0.09765625,0.09765625-0.283203125,0.322265625t-0.283203125,0.322265625q0.99609375-0.546875,2.109375-1.23046875q-0.17578125,0.1171875-0.5078125,0.1171875q-0.0390625,0-0.13671875-0.01953125t-0.13671875-0.01953125z M17.36328125,46.515625l0.078125-0.078125q-0.078125,0-0.078125,0.078125z M17.32421875,46.0859375q0.05859375-0.0390625,0.1953125-0.1171875t0.1953125-0.1171875q-0.01953125,0-0.15625,0.009765625t-0.185546875,0.05859375t-0.048828125,0.166015625z M17.87109375,48l0.05859375,0l-0.05859375,0q0.1171875-0.01953125,0.29296875,0.009765625t0.1953125,0.029296875q0.1953125,0,0.2734375-0.1171875q0.1171875-0.1171875,0.361328125-0.341796875t0.361328125-0.341796875q1.26953125-0.99609375,1.328125-1.03515625q1.015625-0.80078125,3.828125-2.79296875q-0.703125,0.41015625-2.080078125,1.2109375t-2.080078125,1.19140625q-0.5859375,0.3515625-2.421875,1.38671875q-0.078125,0.05859375-0.263671875,0.166015625t-0.263671875,0.166015625l0,0.15625q0,0.1171875-0.0390625,0.15625q0.05859375,0.15625,0.1953125,0.15625l0.1953125,0l0.1171875,0z M27.36328125,41.92578125l-0.60546875,0.390625l0.60546875-0.390625q-2.28515625,1.5234375-4.31640625,3.0078125q-0.17578125,0.13671875-0.673828125,0.48828125t-0.72265625,0.517578125t-0.654296875,0.48828125t-0.703125,0.546875t-0.615234375,0.52734375t-0.634765625,0.576171875q0.1953125,0.0390625,0.46875-0.107421875t0.615234375-0.419921875t0.400390625-0.3125q0.37109375-0.234375,1.03515625-0.673828125t0.83984375-0.556640625q1.015625-0.68359375,2.91015625-1.8359375q1.3671875-0.76171875,1.81640625-0.91796875q0.2734375-0.09765625,0.2734375-0.25390625l0-0.3125q-0.0390625-0.1953125-0.0390625-0.76171875z M21.6796875,48.0390625l0.0390625-0.0390625q-0.0390625,0-0.0390625,0.0390625q0.15625-0.078125,0.1953125-0.078125q0.078125,0,0.263671875,0.05859375t0.263671875,0.05859375q0.1171875,0,0.1953125-0.078125q0.05859375-0.05859375,0.185546875-0.17578125t0.185546875-0.17578125q0.2734375-0.25390625,0.80078125-0.751953125t0.78125-0.771484375q0.46875-0.4296875,1.3671875-1.26953125t1.3671875-1.25q-0.41015625,0.15625-0.888671875,0.400390625t-0.771484375,0.419921875t-0.87890625,0.537109375t-0.78125,0.478515625q-0.68359375,0.44921875-2.021484375,1.328125t-2.021484375,1.30859375q0.05859375,0,0.17578125,0.01953125t0.17578125,0.01953125q0.25390625,0,0.56640625-0.078125l0.078125,0q0.05859375,0,0.185546875,0.01953125t0.185546875,0.01953125q0.0390625,0,0.146484375-0.01953125t0.166015625-0.01953125l0.078125,0z M25.0390625,48.0390625l0.3515625,0q0.29296875,0,0.41015625-0.1171875q0.25390625-0.25390625,0.80078125-0.87890625q0.46875-0.46875,1.5234375-1.6015625q-0.1171875-0.01953125-0.185546875-0.087890625t-0.107421875-0.068359375q-0.078125,0-0.1171875,0.0390625q-0.1953125,0.05859375-0.390625,0.1953125q-0.17578125,0.09765625-0.546875,0.322265625t-0.546875,0.322265625q-0.17578125,0.1171875-1.171875,0.76171875t-1.50390625,0.99609375l0.078125,0q0.21484375,0,0.33203125,0.1171875q0-0.0390625,0.3125-0.0390625q0.2734375,0.0390625,0.76171875,0.0390625z M29.35546875,48.1171875l-0.0390625-0.0390625l0.0390625,0.0390625q0.01953125,0,0.2734375-0.05859375t0.29296875-0.17578125q0.17578125-0.25390625,0.3125-0.56640625q0.1171875-0.17578125,0.361328125-0.556640625t0.361328125-0.556640625q-1.25,0.68359375-3.0859375,1.7578125q0.078125,0.0390625,0.25390625,0.0390625l0.15625,0q0.1953125,0,0.2734375,0.078125q0.05859375,0,0.234375-0.01953125t0.25390625-0.01953125q0.15625,0,0.3125,0.078125z M31.11328125,46.69140625l0,0.0390625l0-0.0390625l0-0.0390625q-0.078125,0-0.078125,0.15625q-0.05859375,0.078125-0.15625,0.234375t-0.15625,0.234375q-0.234375,0.44921875-0.41015625,0.68359375q0.05859375-0.01953125,0.205078125-0.0390625t0.224609375-0.0390625t0.17578125-0.068359375t0.15625-0.1171875t0.078125-0.166015625q-0.0390625-0.15625-0.0390625-0.64453125l0-0.1953125z M29.55078125,45.8125l-0.0390625,0l0.0390625,0q-0.09765625,0-0.44921875-0.146484375t-0.46875-0.146484375q-0.078125,0-0.1171875,0.0390625q-0.1953125,0.234375-0.68359375,0.72265625q-0.234375,0.2734375-0.703125,0.791015625t-0.72265625,0.771484375q0.6640625-0.390625,1.85546875-1.07421875t1.54296875-0.87890625q-0.0390625,0-0.126953125-0.0390625t-0.126953125-0.0390625z M25.1953125,46.359375l0.41015625-0.2734375l-0.48828125,0.3125q0.0390625,0,0.078125-0.0390625q0.72265625-0.44921875,2.24609375-1.34765625q0.234375-0.1171875,0.234375-0.37109375q0-0.13671875-0.068359375-0.390625t-0.087890625-0.37109375q-0.546875,0.52734375-1.69921875,1.6015625t-1.69921875,1.6015625q0.17578125-0.1171875,0.537109375-0.361328125t0.537109375-0.361328125z M27.28515625,41.359375l0-0.078125q-0.0390625,0.01953125-0.849609375,0.390625t-1.240234375,0.56640625q-0.3515625,0.15625-0.703125,0.37109375t-0.80078125,0.52734375t-0.68359375,0.46875q-1.11328125,0.68359375-1.5234375,0.76171875q-0.17578125,0.0390625-0.25390625,0.068359375t-0.087890625,0.068359375t-0.01953125,0.17578125t-0.048828125,0.25390625q0.91796875-0.5078125,1.953125-1.103515625t2.3046875-1.337890625t1.953125-1.1328125z M22.96875,41.4765625l0.80078125-0.5078125q0-0.01953125-0.224609375,0.1171875t-0.458984375,0.2734375l-0.21484375,0.15625q0.05859375,0,0.09765625-0.0390625q1.81640625-1.23046875,3.26171875-2.109375q0.46875-0.29296875,1.015625-0.56640625q0.0390625-0.1171875,0.0390625-0.3125q0-0.1171875-0.01953125-0.3515625t-0.01953125-0.33203125q-2.59765625,2.03125-3.2421875,2.55859375q-0.05859375,0.0390625-1.4453125,1.15234375q-1.015625,0.6640625-1.07421875,0.8984375q1.328125-0.859375,1.484375-0.9375z M33.203125,35.890625l-0.0390625,0l0.0390625,0q0.078125-0.0390625,0.2734375-0.0390625q0.09765625-0.078125,0.283203125-0.263671875t0.283203125-0.263671875q0.1171875-0.13671875,0.380859375-0.400390625t0.380859375-0.400390625q0.68359375-0.68359375,1.11328125-1.23046875q-0.09765625,0-0.25390625-0.01953125t-0.21484375-0.01953125q-0.3125,0-0.56640625,0.15625q-0.60546875,0.29296875-0.99609375,0.546875q-1.54296875,0.95703125-3.046875,1.93359375q0.29296875-0.1171875,0.60546875-0.1171875q0.2734375,0,0.4296875,0.0390625l0.1171875,0q0.078125,0,0.263671875-0.01953125t0.263671875-0.01953125q0.09765625,0,0.33203125,0.05859375t0.3515625,0.05859375z M34.55078125,35.9296875l0.05859375-0.0390625l-0.05859375,0.0390625q0.234375-0.15625,0.44921875-0.15625q0.1171875,0,0.1953125,0.0390625q0.1953125-0.13671875,0.37109375-0.13671875q0.05859375,0,0.17578125,0.01953125t0.17578125,0.01953125q0.15625-0.09765625,0.478515625-0.29296875t0.478515625-0.29296875q0.5078125-0.3125,1.5234375-0.8984375t1.5234375-0.8984375q2.28515625-1.3671875,3.203125-2.01171875q0.2734375-0.17578125,0.7421875-0.517578125t0.60546875-0.439453125t0.13671875-0.3515625l0-0.33203125q-0.7421875,0.37109375-1.484375,0.76171875t-1.6015625,0.8984375t-1.40625,0.8203125t-1.572265625,0.966796875t-1.376953125,0.869140625t-1.552734375,0.986328125t-1.416015625,0.908203125z M39.00390625,36.3203125l0.234375-0.15625q-0.234375,0.1171875-0.234375,0.15625q0.80078125-0.48828125,2.20703125-1.484375t1.953125-1.34765625q1.11328125-0.72265625,1.484375-0.87890625q0.1171875-0.05859375,0.1171875-0.41015625q0-0.44921875-0.078125-0.68359375q-0.52734375,0.390625-1.572265625,1.2109375t-1.552734375,1.23046875q-0.2734375,0.234375-0.80078125,0.6640625t-0.80078125,0.6640625q-0.05859375,0.0390625-0.205078125,0.15625t-0.263671875,0.21484375t-0.244140625,0.224609375t-0.1953125,0.234375t-0.048828125,0.205078125z M44.6484375,30.8125l-0.0390625-0.0390625q-0.13671875,0-0.41015625,0.2734375q-0.078125,0.05859375-0.21484375,0.15625t-0.21484375,0.15625q-0.83984375,0.5859375-1.3671875,0.87890625q0.5078125-0.25390625,1.26953125-0.72265625q0.078125-0.05859375,0.3515625-0.17578125t0.4296875-0.244140625t0.1953125-0.283203125z M38.046875,35.7734375l0.0390625,0l-0.078125,0l0.0390625,0q0.46875,0.078125,0.5078125,0.078125q0.17578125,0,0.41015625-0.17578125q0.546875-0.546875,1.26953125-1.11328125q0.5859375-0.5078125,2.6953125-2.1484375q-2.48046875,1.38671875-5.76171875,3.30078125l0.078125,0q0.13671875,0,0.4296875,0.09765625q0.05859375,0,0.185546875-0.01953125t0.185546875-0.01953125z M43.96484375,33.95703125l-0.72265625,0.44921875q0.41015625-0.21484375,0.72265625-0.44921875q-0.5859375,0.3515625-1.806640625,1.07421875t-1.806640625,1.09375q-0.17578125,0.1171875-0.556640625,0.361328125t-0.556640625,0.361328125q-0.234375,0.13671875-0.234375,0.15625t0.01953125,0.048828125t0.01953125,0.068359375q0,0.078125-0.0390625,0.1171875q0.0390625,0.078125,0.0390625,0.21484375q0,0.078125-0.01953125,0.244140625t-0.01953125,0.224609375l0,0.1171875q0.703125-0.8984375,2.0703125-1.9140625q1.2890625-1.07421875,2.890625-2.16796875z M44.35546875,40.20703125l0.078125,0.078125q0.17578125,0,0.17578125-0.3515625q-0.17578125,0.1171875-0.29296875,0.234375z M44.6484375,36.5546875l0,0.05859375l0-0.05859375q0.01953125,0.0390625-0.09765625,0.146484375t-0.3125,0.244140625t-0.37109375,0.2734375t-0.3515625,0.25390625t-0.1953125,0.13671875q-0.9765625,0.68359375-1.6796875,1.23046875q-0.3515625,0.21484375-0.95703125,0.6640625t-0.80078125,0.5859375q-1.07421875,0.703125-1.03515625,0.91796875q0.64453125-0.2734375,1.38671875-0.712890625t1.201171875-0.76171875t1.337890625-0.95703125t1.19140625-0.849609375q0.15625-0.078125,0.1953125-0.078125q0.1953125,0,0.1953125,0.15625q0,0.078125-0.1171875,0.1953125q-0.390625,0.29296875-1.03515625,0.72265625q-2.05078125,1.484375-3.2421875,2.44140625q0.17578125-0.1171875,0.751953125-0.517578125t0.83984375-0.576171875t0.732421875-0.478515625t0.869140625-0.52734375t0.810546875-0.419921875q0.078125-0.0390625,0.234375-0.09765625t0.234375-0.09765625q0.09765625-0.01953125,0.146484375-0.05859375t0.05859375-0.068359375t0.01953125-0.1171875t0.029296875-0.166015625q-0.078125-0.390625-0.078125-0.76171875q0-0.15625,0.01953125-0.41015625t0.01953125-0.3125z M38.84765625,41.61328125q0.0390625-0.0390625,0.0390625-0.09765625q-0.0390625,0.05859375-0.0390625,0.09765625q0.078125-0.05859375,0.390625-0.37109375q-0.0390625,0.01953125-0.126953125,0.05859375t-0.13671875,0.05859375t-0.087890625,0.068359375t-0.0390625,0.126953125l0,0.05859375z M44.6875,35.8125l-0.17578125,0.078125q0.17578125,0,0.17578125-0.078125q-0.44921875,0.25390625-1.25,0.6640625t-1.4453125,0.76171875t-1.19140625,0.68359375q-0.1953125,0.1171875-0.595703125,0.361328125t-0.595703125,0.361328125q-0.0390625,0.01953125-0.205078125,0.087890625t-0.302734375,0.146484375t-0.17578125,0.15625q0.078125,0.234375,0.078125,0.48828125q0,0.21484375-0.1171875,0.80078125q0.48828125-0.390625,1.533203125-1.1328125t1.533203125-1.11328125q0.3515625-0.21484375,0.91796875-0.634765625t0.76171875-0.556640625q0.078125-0.05859375,0.302734375-0.21484375t0.361328125-0.263671875t0.263671875-0.2734375t0.126953125-0.322265625z M38.80859375,43.15625q0,0.01953125,0.341796875-0.17578125t0.888671875-0.517578125t1.03515625-0.615234375t0.986328125-0.595703125t0.537109375-0.322265625q0.9375-0.64453125,1.6015625-1.2109375q0.13671875-0.09765625,0.21484375-0.15625t0.1171875-0.15625t0.048828125-0.13671875t0.029296875-0.21484375t0.0390625-0.25390625q-0.33203125,0.1171875-0.673828125,0.2734375t-0.7421875,0.390625t-0.625,0.380859375t-0.712890625,0.46875t-0.60546875,0.400390625q-1.71875,1.2109375-1.89453125,1.328125q-0.078125,0.05859375-0.21484375,0.15625t-0.21484375,0.15625q-0.15625,0.05859375-0.15625,0.17578125t0.0390625,0.15625q0,0.3515625-0.0390625,0.46875z M35.87890625,45.7734375l-0.0390625,0l0.0390625,0q-0.078125,0.0390625-0.1953125,0.0390625q-0.1953125,0-0.29296875-0.09765625q-0.0390625,0-0.1953125,0.078125l-0.1953125,0.09765625q0,0.09765625,0.0390625,0.283203125t0.0390625,0.263671875q0.5078125-0.3125,0.91796875-0.625q-0.01953125,0-0.05859375-0.01953125t-0.05859375-0.01953125z M34.16015625,47.00390625q0.0390625-0.0390625,0.0390625-0.078125q0,0.01953125-0.01953125,0.0390625t-0.01953125,0.0390625z M35.44921875,46.69140625l-0.05859375,0l0.13671875-0.0390625l-0.078125,0.0390625l-0.146484375,0.1171875t-0.087890625,0.09765625t-0.048828125,0.078125t-0.0390625,0.126953125t-0.048828125,0.166015625l0,0.078125q0,0.05859375-0.01953125,0.205078125t-0.01953125,0.205078125q0.17578125-0.29296875,0.52734375-0.791015625t0.46875-0.693359375q-0.29296875,0.17578125-0.5859375,0.41015625z M36.953125,47.921875l0.1171875-0.078125l-0.1171875,0.078125q0.60546875-0.4296875,0.83984375-0.56640625q-0.078125,0.01953125-0.283203125,0.15625t-0.380859375,0.2734375z M39.12109375,48l0.0390625,0l-0.0390625,0q0.1171875-0.0390625,0.244140625-0.263671875t0.185546875-0.283203125q0.52734375-0.52734375,1.2890625-1.0546875q-0.4296875,0.234375-1.19140625,0.8203125t-1.1328125,0.8203125q0.1171875,0.0390625,0.29296875,0.0390625z M40.44921875,47.9609375l0.234375-0.078125q-0.01953125,0-0.0390625,0.009765625t-0.078125,0.029296875l-0.1171875,0.0390625q0.0390625,0.01953125,0.21484375,0.05859375t0.21484375,0.05859375q0.15625-0.078125,0.41015625-0.078125q0.0390625,0,0.1171875,0.01953125t0.1171875,0.01953125q0.703125-0.56640625,1.26953125-0.95703125q1.71875-1.2890625,2.40234375-1.9140625q-0.0390625-0.0390625-0.3125,0.09765625t-0.673828125,0.390625t-0.751953125,0.498046875t-0.72265625,0.498046875t-0.41015625,0.2734375q-1.5234375,0.8984375-1.875,1.03515625z M45.60546875,45.40234375q-0.0390625-0.0390625-0.078125-0.0390625q-0.09765625,0-0.17578125,0.15625z M45.3125,46.0078125l-0.2734375,0.15625q0.1171875-0.078125,0.2734375-0.15625q-0.546875,0.29296875-1.9921875,1.23046875q1.07421875-0.703125,1.9921875-1.23046875z M43.4765625,48.0390625q0.15625,0.01953125,0.400390625-0.029296875t0.361328125-0.048828125l0.15625,0q0.15625,0.01953125,0.3125-0.078125t0.341796875-0.29296875t0.224609375-0.234375q1.26953125-1.26953125,1.6015625-1.6796875q-0.2734375-0.01953125-0.6640625,0.1953125t-0.8984375,0.595703125t-0.5859375,0.419921875q-0.29296875,0.17578125-0.91796875,0.556640625t-0.9375,0.556640625l0.21484375,0q0.2734375,0,0.390625,0.0390625z M45.87890625,47.84375l0.234375-0.1171875l-0.21484375,0.1171875l-0.01953125,0q0.17578125-0.09765625,0.78125-0.400390625t0.986328125-0.546875t0.673828125-0.537109375q-0.83984375,0.21484375-2.59765625,1.5234375q0.0390625,0.0390625,0.078125,0.0390625z M48.0078125,48.078125q0.05859375,0,0.15625-0.15625t0.1953125-0.361328125t0.1171875-0.244140625q0.078125-0.13671875,0.224609375-0.400390625t0.224609375-0.400390625q-1.15234375,0.7421875-2.28515625,1.40625q0.3125,0.15625,1.3671875,0.15625z M49.00390625,47.23828125q-0.01953125,0-0.068359375,0.068359375t-0.048828125,0.107421875q0.05859375-0.0390625,0.068359375-0.048828125t0.009765625-0.048828125t0.0390625-0.078125z M48.7109375,47.9609375l0.05859375,0l-0.05859375,0q0.0390625,0,0.09765625,0.01953125t0.078125,0.01953125l0-0.078125l0-0.0390625z M47.71484375,45.8515625l0.0390625,0l-0.0390625,0q-0.09765625,0-0.1953125-0.01953125t-0.1171875-0.01953125q-0.1171875,0-0.234375,0.1171875q-0.05859375,0.078125-0.185546875,0.21484375t-0.185546875,0.21484375q-0.64453125,0.64453125-0.91796875,0.95703125q1.5234375-1.07421875,2.32421875-1.30859375q0.078125-0.0390625,0.234375-0.0390625q0.1953125,0,0.234375,0.078125q0.15625,0.078125,0.17578125,0.078125q0.1953125,0,0.1953125-0.3125l0-0.13671875q-0.0390625,0.0390625-0.15625,0.0390625l-0.1171875,0q-0.05859375,0-0.17578125,0.05859375q-0.01953125,0-0.05859375,0.01953125t-0.05859375,0.01953125q-0.0390625,0-0.087890625-0.01953125t-0.068359375-0.01953125q-0.1171875-0.05859375-0.15625-0.05859375q-0.078125,0-0.21484375,0.068359375t-0.234375,0.068359375z M39.7265625,47.84375l0.2734375-0.078125q-0.0390625-0.0390625-0.078125-0.0390625q-0.13671875,0-0.1953125,0.1171875q0.3125-0.078125,0.693359375-0.244140625t0.634765625-0.3125t0.673828125-0.4296875t0.595703125-0.380859375q1.15234375-0.7421875,2.2265625-1.46484375q0.41015625-0.29296875,0.41015625-0.44921875q0-0.1171875-0.1171875-0.3515625q-0.5078125,0.3515625-1.58203125,1.03515625t-1.58203125,1.03515625q-0.17578125,0.1171875-0.634765625,0.439453125t-0.771484375,0.576171875t-0.546875,0.546875z M40.95703125,45.67578125q0.0390625-0.01953125,0.419921875-0.234375t0.537109375-0.3515625q-0.15625,0.09765625-0.478515625,0.29296875t-0.478515625,0.29296875z M44.609375,41.359375l0-0.1171875q-0.3125,0.17578125-1.259765625,0.56640625t-1.396484375,0.68359375q-0.9765625,0.64453125-2.44140625,1.42578125q-0.2734375,0.13671875-0.6640625,0.37109375q-0.234375,0.1171875-0.29296875,0.1171875q-0.1171875,0-0.1171875,0.0390625l0,0.1171875l0,0.078125q0.01953125,0.21484375-0.1953125,0.4296875t-0.44921875,0.33203125q-0.37109375,0.44921875-0.76171875,0.44921875q-0.15625,0-0.3515625-0.13671875q0.0390625,0.3125-0.3515625,0.80078125q-0.05859375,0.09765625-0.9375,1.3671875q0.17578125-0.1171875,0.41015625-0.1171875q0.1171875,0,0.2734375,0.078125q0.09765625-0.0390625,0.64453125-0.3125q0.234375-0.1171875,0.654296875-0.380859375t0.634765625-0.380859375q1.77734375-1.0546875,2.83203125-1.71875q0.4296875-0.2734375,1.2890625-0.810546875t1.30859375-0.830078125q0.15625-0.15625,0.498046875-0.380859375t0.537109375-0.224609375q0.09765625,0,0.13671875,0.0390625l0-0.3125l0-0.80078125l0-0.37109375z M45.72265625,34.97265625q-0.15625,0-0.15625,0.078125q0,0.01953125,0.01953125,0.05859375t0.01953125,0.05859375q0.0390625-0.0390625,0.1171875-0.1953125z M44.8046875,33.87890625q0,0.01953125-0.3515625,0.263671875t-0.751953125,0.517578125t-0.458984375,0.3125q-0.95703125,0.60546875-1.7578125,1.30859375q-1.2890625,1.0546875-1.8359375,1.640625q0.6640625-0.390625,1.953125-1.2109375t1.953125-1.19140625q0.5859375-0.3515625,1.171875-0.64453125q0.0390625-0.078125,0.0390625-0.2734375l0-0.3515625q0-0.29296875,0.0390625-0.37109375z M44.51171875,29.2890625l0.0390625-0.0390625l-0.0390625,0.0390625q0.13671875-0.078125,0.13671875-0.44921875q0-0.234375-0.048828125-0.5859375t-0.048828125-0.37109375q-0.13671875,0.17578125-0.37109375,0.3515625t-0.517578125,0.380859375t-0.419921875,0.302734375q-0.21484375,0.17578125-0.654296875,0.52734375t-0.673828125,0.52734375q1.25-0.80078125,2.01171875-1.0546875l0.1953125,0q0.48828125,0,0.48828125,0.21484375q0,0.01953125-0.01953125,0.0390625t-0.0390625,0.048828125t-0.0390625,0.068359375z M46.23046875,24.6015625l0.09765625,0l-0.09765625,0q0.17578125,0,0.3515625,0.146484375t0.17578125,0.302734375q0.078125-0.078125,0.244140625-0.15625t0.244140625-0.17578125q0.13671875-0.2734375,0.390625-0.2734375q0.0390625,0,0.1953125,0.078125q0.13671875,0.0390625,0.3125-0.0390625t0.41015625-0.244140625t0.29296875-0.205078125q-0.078125-0.703125-0.078125-1.11328125q0-0.29296875,0.078125-0.68359375q-0.234375,0.05859375-0.48828125,0.244140625t-0.546875,0.44921875t-0.44921875,0.361328125q-0.625,0.46875-1.806640625,1.3671875t-1.474609375,1.11328125q-0.52734375,0.41015625-1.484375,1.1328125t-1.767578125,1.337890625t-1.513671875,1.162109375q0.625-0.41015625,2.20703125-1.5234375t2.48046875-1.640625q0.80078125-0.48828125,1.07421875-0.52734375q0.0390625-0.0390625,0.0390625-0.1171875l0-0.078125q0-0.1171875,0.0390625-0.15625q0.17578125-0.234375,0.33203125-0.390625q0.3125-0.3125,0.7421875-0.37109375z"/><path fill="#" d=""/></svg>
